<svg xmlns="http://www.w3.org/2000/svg" width="31.509" height="27.963" viewBox="0 0 31.509 27.963">
  <g id="bathing" transform="translate(-7.95 -39.95)">
    <path id="Path_1787" data-name="Path 1787" d="M38.9,55.2H34.343v-1.52a.507.507,0,0,0-.507-.507H27.757a.507.507,0,0,0-.507.507V55.2H13.066V43.546a2.533,2.533,0,1,1,5.066,0V44.6a3.044,3.044,0,0,0-2.533,3v.507a.507.507,0,0,0,.507.507h5.066a.507.507,0,0,0,.507-.507V47.6a3.044,3.044,0,0,0-2.533-3V43.546a3.546,3.546,0,0,0-7.092,0V55.2H8.507A.507.507,0,0,0,8,55.7v1.52a.507.507,0,0,0,.507.507h1.52v3.546a5.582,5.582,0,0,0,4.053,5.362v.717a.507.507,0,0,0,1.013,0v-.53c.167.015.336.023.507.023H31.81c.171,0,.339-.008.507-.023v.53a.507.507,0,0,0,1.013,0v-.717a5.582,5.582,0,0,0,4.053-5.362V57.731H38.9a.507.507,0,0,0,.507-.507V55.7A.507.507,0,0,0,38.9,55.2ZM20.665,47.6H16.612a2.026,2.026,0,0,1,4.053,0Zm7.6,6.586H33.33V62.8H28.264ZM9.013,56.718v-.507H27.251v.507Zm27.356,4.559a4.565,4.565,0,0,1-4.559,4.559H15.6a4.565,4.565,0,0,1-4.559-4.559V57.731H27.251V63.3a.507.507,0,0,0,.507.507h6.079a.507.507,0,0,0,.507-.507V57.731h2.026ZM38.4,56.718H34.343v-.507H38.4Z" transform="translate(0 0)" fill="#30ccd3" stroke="#30ccd3" stroke-width="0.1"/>
    <path id="Path_1788" data-name="Path 1788" d="M78.079,336H72.507a.507.507,0,0,0,0,1.013h5.573a.507.507,0,0,0,0-1.013Z" transform="translate(-59.947 -277.256)" fill="#30ccd3" stroke="#30ccd3" stroke-width="0.1"/>
    <path id="Path_1789" data-name="Path 1789" d="M185.52,336h-1.013a.507.507,0,0,0,0,1.013h1.013a.507.507,0,0,0,0-1.013Z" transform="translate(-164.855 -277.256)" fill="#30ccd3" stroke="#30ccd3" stroke-width="0.1"/>
    <path id="Path_1790" data-name="Path 1790" d="M257.52,171.04a1.52,1.52,0,1,0-1.52-1.52A1.52,1.52,0,0,0,257.52,171.04Zm0-2.026a.507.507,0,1,1-.507.507A.507.507,0,0,1,257.52,169.013Z" transform="translate(-232.296 -119.894)" fill="#30ccd3" stroke="#30ccd3" stroke-width="0.1"/>
    <path id="Path_1791" data-name="Path 1791" d="M298.533,93.066A2.533,2.533,0,1,0,296,90.533,2.533,2.533,0,0,0,298.533,93.066Zm0-4.053a1.52,1.52,0,1,1-1.52,1.52A1.52,1.52,0,0,1,298.533,89.013Z" transform="translate(-269.763 -44.96)" fill="#30ccd3" stroke="#30ccd3" stroke-width="0.1"/>
    <path id="Path_1792" data-name="Path 1792" d="M360,162.026A2.026,2.026,0,1,0,362.026,160,2.026,2.026,0,0,0,360,162.026Zm2.026-1.013a1.013,1.013,0,1,1-1.013,1.013A1.013,1.013,0,0,1,362.026,161.013Z" transform="translate(-329.71 -112.401)" fill="#30ccd3" stroke="#30ccd3" stroke-width="0.1"/>
  </g>
</svg>
