<svg xmlns="http://www.w3.org/2000/svg" width="31.409" height="22.29" viewBox="0 0 31.409 22.29">
  <path id="bed" d="M38.9,96.718H38.4V92.665a2.029,2.029,0,0,0-2.026-2.026V82.026A2.029,2.029,0,0,0,34.343,80H13.066a2.029,2.029,0,0,0-2.026,2.026v8.612a2.029,2.029,0,0,0-2.026,2.026v4.053H8.507A.507.507,0,0,0,8,97.224v2.026a.507.507,0,0,0,.507.507h.507v2.026a.507.507,0,0,0,.507.507h1.52a.506.506,0,0,0,.5-.407l.426-2.126H35.447l.426,2.126a.506.506,0,0,0,.5.407h1.52a.507.507,0,0,0,.507-.507V99.757H38.9a.507.507,0,0,0,.507-.507V97.224A.507.507,0,0,0,38.9,96.718ZM12.053,82.026a1.015,1.015,0,0,1,1.013-1.013H34.343a1.015,1.015,0,0,1,1.013,1.013v8.612H34.343V88.612a2.029,2.029,0,0,0-2.026-2.026H26.237a2.029,2.029,0,0,0-2.026,2.026v2.026H23.2V88.612a2.029,2.029,0,0,0-2.026-2.026H15.092a2.029,2.029,0,0,0-2.026,2.026v2.026H12.053ZM33.33,88.612v2.026H25.224V88.612A1.015,1.015,0,0,1,26.237,87.6h6.079A1.015,1.015,0,0,1,33.33,88.612Zm-11.145,0v2.026H14.079V88.612A1.015,1.015,0,0,1,15.092,87.6h6.079A1.015,1.015,0,0,1,22.185,88.612ZM10.026,92.665a1.015,1.015,0,0,1,1.013-1.013h25.33a1.015,1.015,0,0,1,1.013,1.013v4.053H10.026Zm.6,8.612h-.6v-1.52h.9Zm26.758,0h-.6l-.3-1.52h.9ZM38.4,98.744H9.013V97.731H38.4Z" transform="translate(-8 -80)" fill="#30ccd3"/>
</svg>
