<svg id="selection" xmlns="http://www.w3.org/2000/svg" width="31.409" height="31.409" viewBox="0 0 31.409 31.409">
  <g id="Group_990" data-name="Group 990">
    <path id="Path_1802" data-name="Path 1802" d="M30.6,6.443a.805.805,0,0,0,.805-.805V.805A.805.805,0,0,0,30.6,0H25.771a.805.805,0,0,0-.805.805V2.416H6.443V.805A.805.805,0,0,0,5.637,0H.805A.805.805,0,0,0,0,.805V5.637a.805.805,0,0,0,.805.805H2.416V24.966H.805A.805.805,0,0,0,0,25.771V30.6a.805.805,0,0,0,.805.805H5.637a.805.805,0,0,0,.805-.805V28.993H24.966V30.6a.805.805,0,0,0,.805.805H30.6a.805.805,0,0,0,.805-.805V25.771a.805.805,0,0,0-.805-.805H28.993V6.443ZM27.382,24.966H25.771a.805.805,0,0,0-.805.805v1.611H6.443V25.771a.805.805,0,0,0-.805-.805H4.027V6.443H5.637a.805.805,0,0,0,.805-.805V4.027H24.966V5.637a.805.805,0,0,0,.805.805h1.611V24.966Z" fill="#30ccd3"/>
  </g>
</svg>
