<svg xmlns="http://www.w3.org/2000/svg" width="667.828" height="512" viewBox="0 0 667.828 512">
  <g id="hotel" transform="translate(0 -56.001)">
    <path id="Path_2135" data-name="Path 2135" d="M656.7,545.74V278.609a11.131,11.131,0,0,0,10.56-14.65L633.866,163.784a11.13,11.13,0,0,0-10.559-7.61H478.61v-34.78h0a11.133,11.133,0,0,0,3.175-21.8l-144.7-43.131a11.163,11.163,0,0,0-6.358,0l-144.7,43.131a11.128,11.128,0,0,0,3.181,21.792v34.788H44.522a11.13,11.13,0,0,0-10.559,7.61L.572,263.958a11.131,11.131,0,0,0,10.559,14.65V545.74a11.13,11.13,0,0,0,0,22.261H656.7a11.13,11.13,0,0,0,0-22.261Zm-22.261,0H478.61V278.609H634.436ZM211.479,478.957H256V545.74H211.479Zm66.783,0h111.3V545.74h-111.3Zm133.566,0h44.522V545.74H411.827ZM615.284,178.435l25.972,77.913H478.61V178.435Zm-281.37-99.69,122.435,36.5V456.7H211.479V115.24Zm-281.37,99.69H189.218v77.913H26.574ZM33.391,278.609H189.218V545.74H33.391Z" fill="#00c2cb"/>
    <path id="Path_2136" data-name="Path 2136" d="M115.13,160A11.131,11.131,0,0,0,104,171.13v22.261a11.13,11.13,0,1,0,22.261,0V171.13A11.13,11.13,0,0,0,115.13,160Z" transform="translate(40.696 40.696)" fill="#00c2cb"/>
    <path id="Path_2137" data-name="Path 2137" d="M83.13,160A11.131,11.131,0,0,0,72,171.13v22.261a11.13,11.13,0,0,0,22.261,0V171.13A11.13,11.13,0,0,0,83.13,160Z" transform="translate(28.174 40.696)" fill="#00c2cb"/>
    <path id="Path_2138" data-name="Path 2138" d="M51.13,160A11.131,11.131,0,0,0,40,171.13v22.261a11.13,11.13,0,1,0,22.261,0V171.13A11.13,11.13,0,0,0,51.13,160Z" transform="translate(15.652 40.696)" fill="#00c2cb"/>
    <path id="Path_2139" data-name="Path 2139" d="M435.13,204.522a11.131,11.131,0,0,0,11.13-11.13V171.13a11.13,11.13,0,1,0-22.261,0v22.261A11.131,11.131,0,0,0,435.13,204.522Z" transform="translate(165.914 40.696)" fill="#00c2cb"/>
    <path id="Path_2140" data-name="Path 2140" d="M403.13,204.522a11.131,11.131,0,0,0,11.13-11.13V171.13a11.13,11.13,0,1,0-22.261,0v22.261A11.131,11.131,0,0,0,403.13,204.522Z" transform="translate(153.393 40.696)" fill="#00c2cb"/>
    <path id="Path_2141" data-name="Path 2141" d="M371.13,204.522a11.131,11.131,0,0,0,11.13-11.13V171.13a11.13,11.13,0,1,0-22.261,0v22.261A11.131,11.131,0,0,0,371.13,204.522Z" transform="translate(140.871 40.696)" fill="#00c2cb"/>
    <path id="Path_2142" data-name="Path 2142" d="M115.13,232A11.131,11.131,0,0,0,104,243.13v33.391a11.13,11.13,0,0,0,22.261,0V243.13A11.13,11.13,0,0,0,115.13,232Z" transform="translate(40.696 68.87)" fill="#00c2cb"/>
    <path id="Path_2143" data-name="Path 2143" d="M83.13,232A11.131,11.131,0,0,0,72,243.13v33.391a11.13,11.13,0,0,0,22.261,0V243.13A11.13,11.13,0,0,0,83.13,232Z" transform="translate(28.174 68.87)" fill="#00c2cb"/>
    <path id="Path_2144" data-name="Path 2144" d="M51.13,232A11.131,11.131,0,0,0,40,243.13v33.391a11.13,11.13,0,0,0,22.261,0V243.13A11.13,11.13,0,0,0,51.13,232Z" transform="translate(15.652 68.87)" fill="#00c2cb"/>
    <path id="Path_2145" data-name="Path 2145" d="M115.13,288A11.131,11.131,0,0,0,104,299.13v33.391a11.13,11.13,0,0,0,22.261,0V299.13A11.13,11.13,0,0,0,115.13,288Z" transform="translate(40.696 90.783)" fill="#00c2cb"/>
    <path id="Path_2146" data-name="Path 2146" d="M83.13,288A11.131,11.131,0,0,0,72,299.13v33.391a11.13,11.13,0,0,0,22.261,0V299.13A11.13,11.13,0,0,0,83.13,288Z" transform="translate(28.174 90.783)" fill="#00c2cb"/>
    <path id="Path_2147" data-name="Path 2147" d="M51.13,288A11.131,11.131,0,0,0,40,299.13v33.391a11.13,11.13,0,1,0,22.261,0V299.13A11.13,11.13,0,0,0,51.13,288Z" transform="translate(15.652 90.783)" fill="#00c2cb"/>
    <path id="Path_2148" data-name="Path 2148" d="M115.13,344A11.131,11.131,0,0,0,104,355.13v33.391a11.13,11.13,0,0,0,22.261,0V355.13A11.13,11.13,0,0,0,115.13,344Z" transform="translate(40.696 112.696)" fill="#00c2cb"/>
    <path id="Path_2149" data-name="Path 2149" d="M83.13,344A11.131,11.131,0,0,0,72,355.13v33.391a11.13,11.13,0,0,0,22.261,0V355.13A11.13,11.13,0,0,0,83.13,344Z" transform="translate(28.174 112.696)" fill="#00c2cb"/>
    <path id="Path_2150" data-name="Path 2150" d="M51.13,344A11.131,11.131,0,0,0,40,355.13v33.391a11.13,11.13,0,0,0,22.261,0V355.13A11.13,11.13,0,0,0,51.13,344Z" transform="translate(15.652 112.696)" fill="#00c2cb"/>
    <path id="Path_2151" data-name="Path 2151" d="M435.13,287.652a11.131,11.131,0,0,0,11.13-11.13V243.13a11.13,11.13,0,1,0-22.261,0v33.391A11.131,11.131,0,0,0,435.13,287.652Z" transform="translate(165.914 68.87)" fill="#00c2cb"/>
    <path id="Path_2152" data-name="Path 2152" d="M403.13,287.652a11.131,11.131,0,0,0,11.13-11.13V243.13a11.13,11.13,0,1,0-22.261,0v33.391A11.131,11.131,0,0,0,403.13,287.652Z" transform="translate(153.393 68.87)" fill="#00c2cb"/>
    <path id="Path_2153" data-name="Path 2153" d="M371.13,287.652a11.131,11.131,0,0,0,11.13-11.13V243.13a11.13,11.13,0,1,0-22.261,0v33.391A11.131,11.131,0,0,0,371.13,287.652Z" transform="translate(140.871 68.87)" fill="#00c2cb"/>
    <path id="Path_2154" data-name="Path 2154" d="M435.13,343.652a11.131,11.131,0,0,0,11.13-11.13V299.13a11.13,11.13,0,1,0-22.261,0v33.391A11.131,11.131,0,0,0,435.13,343.652Z" transform="translate(165.914 90.783)" fill="#00c2cb"/>
    <path id="Path_2155" data-name="Path 2155" d="M403.13,343.652a11.131,11.131,0,0,0,11.13-11.13V299.13a11.13,11.13,0,1,0-22.261,0v33.391A11.131,11.131,0,0,0,403.13,343.652Z" transform="translate(153.393 90.783)" fill="#00c2cb"/>
    <path id="Path_2156" data-name="Path 2156" d="M371.13,343.652a11.131,11.131,0,0,0,11.13-11.13V299.13a11.13,11.13,0,1,0-22.261,0v33.391A11.131,11.131,0,0,0,371.13,343.652Z" transform="translate(140.871 90.783)" fill="#00c2cb"/>
    <path id="Path_2157" data-name="Path 2157" d="M435.13,399.652a11.131,11.131,0,0,0,11.13-11.13V355.13a11.13,11.13,0,1,0-22.261,0v33.391A11.131,11.131,0,0,0,435.13,399.652Z" transform="translate(165.914 112.696)" fill="#00c2cb"/>
    <path id="Path_2158" data-name="Path 2158" d="M403.13,399.652a11.131,11.131,0,0,0,11.13-11.13V355.13a11.13,11.13,0,1,0-22.261,0v33.391A11.131,11.131,0,0,0,403.13,399.652Z" transform="translate(153.393 112.696)" fill="#00c2cb"/>
    <path id="Path_2159" data-name="Path 2159" d="M371.13,399.652a11.131,11.131,0,0,0,11.13-11.13V355.13a11.13,11.13,0,1,0-22.261,0v33.391A11.131,11.131,0,0,0,371.13,399.652Z" transform="translate(140.871 112.696)" fill="#00c2cb"/>
    <path id="Path_2160" data-name="Path 2160" d="M275.13,287.652a11.131,11.131,0,0,0,11.13-11.13V243.13a11.13,11.13,0,1,0-22.261,0v33.391A11.131,11.131,0,0,0,275.13,287.652Z" transform="translate(103.305 68.87)" fill="#00c2cb"/>
    <path id="Path_2161" data-name="Path 2161" d="M243.13,287.652a11.131,11.131,0,0,0,11.13-11.13V243.13a11.13,11.13,0,1,0-22.261,0v33.391A11.131,11.131,0,0,0,243.13,287.652Z" transform="translate(90.783 68.87)" fill="#00c2cb"/>
    <path id="Path_2162" data-name="Path 2162" d="M211.13,287.652a11.131,11.131,0,0,0,11.13-11.13V243.13a11.13,11.13,0,1,0-22.261,0v33.391A11.131,11.131,0,0,0,211.13,287.652Z" transform="translate(78.262 68.87)" fill="#00c2cb"/>
    <path id="Path_2163" data-name="Path 2163" d="M275.13,343.652a11.131,11.131,0,0,0,11.13-11.13V299.13a11.13,11.13,0,1,0-22.261,0v33.391A11.131,11.131,0,0,0,275.13,343.652Z" transform="translate(103.305 90.783)" fill="#00c2cb"/>
    <path id="Path_2164" data-name="Path 2164" d="M243.13,343.652a11.131,11.131,0,0,0,11.13-11.13V299.13a11.13,11.13,0,1,0-22.261,0v33.391A11.131,11.131,0,0,0,243.13,343.652Z" transform="translate(90.783 90.783)" fill="#00c2cb"/>
    <path id="Path_2165" data-name="Path 2165" d="M211.13,343.652a11.131,11.131,0,0,0,11.13-11.13V299.13a11.13,11.13,0,1,0-22.261,0v33.391A11.131,11.131,0,0,0,211.13,343.652Z" transform="translate(78.262 90.783)" fill="#00c2cb"/>
    <path id="Path_2166" data-name="Path 2166" d="M179.13,287.652a11.131,11.131,0,0,0,11.13-11.13V243.13a11.13,11.13,0,1,0-22.261,0v33.391A11.131,11.131,0,0,0,179.13,287.652Z" transform="translate(65.74 68.87)" fill="#00c2cb"/>
    <path id="Path_2167" data-name="Path 2167" d="M179.13,343.652a11.131,11.131,0,0,0,11.13-11.13V299.13a11.13,11.13,0,1,0-22.261,0v33.391A11.131,11.131,0,0,0,179.13,343.652Z" transform="translate(65.74 90.783)" fill="#00c2cb"/>
    <path id="Path_2168" data-name="Path 2168" d="M307.13,287.652a11.131,11.131,0,0,0,11.13-11.13V243.13a11.13,11.13,0,0,0-22.261,0v33.391A11.131,11.131,0,0,0,307.13,287.652Z" transform="translate(115.827 68.87)" fill="#00c2cb"/>
    <path id="Path_2169" data-name="Path 2169" d="M275.13,231.652a11.131,11.131,0,0,0,11.13-11.13V187.13a11.13,11.13,0,0,0-22.261,0v33.391A11.131,11.131,0,0,0,275.13,231.652Z" transform="translate(103.305 46.957)" fill="#00c2cb"/>
    <path id="Path_2170" data-name="Path 2170" d="M243.13,231.652a11.131,11.131,0,0,0,11.13-11.13V187.13a11.13,11.13,0,0,0-22.261,0v33.391A11.131,11.131,0,0,0,243.13,231.652Z" transform="translate(90.783 46.957)" fill="#00c2cb"/>
    <path id="Path_2171" data-name="Path 2171" d="M211.13,231.652a11.131,11.131,0,0,0,11.13-11.13V187.13a11.13,11.13,0,0,0-22.261,0v33.391A11.131,11.131,0,0,0,211.13,231.652Z" transform="translate(78.262 46.957)" fill="#00c2cb"/>
    <path id="Path_2172" data-name="Path 2172" d="M179.13,231.652a11.131,11.131,0,0,0,11.13-11.13V187.13a11.13,11.13,0,0,0-22.261,0v33.391A11.131,11.131,0,0,0,179.13,231.652Z" transform="translate(65.74 46.957)" fill="#00c2cb"/>
    <path id="Path_2173" data-name="Path 2173" d="M307.13,231.652a11.131,11.131,0,0,0,11.13-11.13V187.13a11.13,11.13,0,0,0-22.261,0v33.391A11.131,11.131,0,0,0,307.13,231.652Z" transform="translate(115.827 46.957)" fill="#00c2cb"/>
    <path id="Path_2174" data-name="Path 2174" d="M275.13,175.652a11.131,11.131,0,0,0,11.13-11.13V131.13a11.13,11.13,0,1,0-22.261,0v33.391A11.131,11.131,0,0,0,275.13,175.652Z" transform="translate(103.305 25.043)" fill="#00c2cb"/>
    <path id="Path_2175" data-name="Path 2175" d="M243.13,175.652a11.131,11.131,0,0,0,11.13-11.13V131.13a11.13,11.13,0,1,0-22.261,0v33.391A11.131,11.131,0,0,0,243.13,175.652Z" transform="translate(90.783 25.043)" fill="#00c2cb"/>
    <path id="Path_2176" data-name="Path 2176" d="M211.13,175.652a11.131,11.131,0,0,0,11.13-11.13V131.13a11.13,11.13,0,1,0-22.261,0v33.391A11.131,11.131,0,0,0,211.13,175.652Z" transform="translate(78.262 25.043)" fill="#00c2cb"/>
    <path id="Path_2177" data-name="Path 2177" d="M179.13,175.652a11.131,11.131,0,0,0,11.13-11.13V131.13a11.13,11.13,0,1,0-22.261,0v33.391A11.131,11.131,0,0,0,179.13,175.652Z" transform="translate(65.74 25.043)" fill="#00c2cb"/>
    <path id="Path_2178" data-name="Path 2178" d="M307.13,175.652a11.131,11.131,0,0,0,11.13-11.13V131.13a11.13,11.13,0,1,0-22.261,0v33.391A11.131,11.131,0,0,0,307.13,175.652Z" transform="translate(115.827 25.043)" fill="#00c2cb"/>
    <path id="Path_2179" data-name="Path 2179" d="M307.13,343.652a11.131,11.131,0,0,0,11.13-11.13V299.13a11.13,11.13,0,0,0-22.261,0v33.391A11.131,11.131,0,0,0,307.13,343.652Z" transform="translate(115.827 90.783)" fill="#00c2cb"/>
  </g>
</svg>
