<svg xmlns="http://www.w3.org/2000/svg" width="512.006" height="512" viewBox="0 0 512.006 512">
  <g id="home" transform="translate(0 -0.003)">
    <path id="Path_2132" data-name="Path 2132" d="M504.475,140.883l-23.859-13.7V15a15,15,0,0,0-15-15H385.848a15,15,0,0,0-15,15v49.16L263.836,2.723a15.008,15.008,0,0,0-14.938,0L7.538,141.3A15,15,0,0,0,.007,154.306v70c-.345,11.176,12.95,18.871,22.469,13.008l9.882-5.673V497a15,15,0,0,0,15,15h418.02a15,15,0,0,0,15-15V231.641l9.161,5.26a15,15,0,0,0,22.468-13.008v-70A15,15,0,0,0,504.475,140.883ZM400.848,30h49.768V109.96L400.848,81.386ZM211.088,482H121.7V331.91h89.393Zm239.289,0H241.088V316.91a15,15,0,0,0-15-15H106.7a15,15,0,0,0-15,15V482H62.357V214.417l194.01-111.388,194.01,111.388Zm31.63-284.019L263.836,72.723a15.008,15.008,0,0,0-14.938,0L30.007,198.4V162.991L256.367,33.029l225.64,129.548Z" fill="#00c2cb"/>
    <path id="Path_2133" data-name="Path 2133" d="M271.1,316.66V437.15a15,15,0,0,0,15,15H405.592a15,15,0,0,0,15-15V316.66a15,15,0,0,0-15-15H286.1A15,15,0,0,0,271.1,316.66Zm30,75h30v30.49h-30Zm60,30.491v-30.49h29.491v30.49Zm29.491-60.491H361.1v-30h29.491Zm-59.491-30v30h-30v-30Z" fill="#00c2cb"/>
    <path id="Path_2134" data-name="Path 2134" d="M210.967,199.538a45.04,45.04,0,1,0,45.04-45.04,45.091,45.091,0,0,0-45.04,45.04Zm60.08,0a15.04,15.04,0,1,1-15.04-15.04A15.057,15.057,0,0,1,271.047,199.538Z" fill="#00c2cb"/>
  </g>
</svg>
